<?xml version="1.0" encoding="UTF-8"?>
<svg version="1.1" xmlns="http://www.w3.org/2000/svg" width="570" height="571">
<path d="M0 0 C6.39946094 5.87101466 12.57681162 11.75202223 18.09375 18.47265625 C18.9084375 19.41109375 19.723125 20.34953125 20.5625 21.31640625 C32.24566911 34.78253219 42.10555421 49.08803135 51.09375 64.47265625 C51.5475 65.23642578 52.00125 66.00019531 52.46875 66.78710938 C69.16021359 95.02508257 79.44772628 126.26116319 85.09375 158.47265625 C85.25891113 159.37951172 85.42407227 160.28636719 85.59423828 161.22070312 C90.74225662 190.71400362 90.62874001 224.05440228 85.09375 253.47265625 C84.84431641 254.89384766 84.84431641 254.89384766 84.58984375 256.34375 C75.29947215 308.71391877 51.3456443 357.86382221 14.79296875 396.5859375 C12.67044609 398.85590023 10.64656923 401.15168754 8.65625 403.53515625 C-0.27335027 413.80203966 -11.09286157 422.29767623 -21.90625 430.47265625 C-22.51227051 430.93559082 -23.11829102 431.39852539 -23.74267578 431.87548828 C-32.76531395 438.75112332 -42.00648101 444.93300805 -51.90625 450.47265625 C-52.65551758 450.89514648 -53.40478516 451.31763672 -54.17675781 451.75292969 C-80.24799027 466.31495222 -107.93780567 476.50622126 -137.21875 482.28515625 C-138.20689697 482.48028809 -139.19504395 482.67541992 -140.21313477 482.87646484 C-156.92671311 485.96485826 -173.56473811 486.85390761 -190.53125 486.78515625 C-191.49458252 486.7830011 -192.45791504 486.78084595 -193.45043945 486.77862549 C-208.46579795 486.72487938 -223.10102166 486.18601359 -237.90625 483.47265625 C-239.01242676 483.27397949 -240.11860352 483.07530273 -241.25830078 482.87060547 C-308.58020327 470.42775072 -369.84945825 433.5194686 -411.59375 379.17480469 C-412.79093813 377.62220134 -414.00402677 376.08189176 -415.21875 374.54296875 C-421.86879955 365.96915487 -427.41093349 356.81370773 -432.90625 347.47265625 C-433.3305127 346.76399414 -433.75477539 346.05533203 -434.19189453 345.32519531 C-456.39281946 308.10676314 -469.89689682 262.52496769 -470.109375 219.05859375 C-470.11643463 218.0942894 -470.12349426 217.12998505 -470.13076782 216.13645935 C-470.3555303 176.42516045 -470.3555303 176.42516045 -466.90625 158.47265625 C-466.61621094 156.86729004 -466.61621094 156.86729004 -466.3203125 155.22949219 C-456.83634397 103.49210215 -433.48239437 54.59452775 -397.37890625 16.1328125 C-395.37703103 13.97913631 -393.47437291 11.79284642 -391.59375 9.53515625 C-382.30810499 -1.12122683 -371.15435634 -10.04837906 -359.90625 -18.52734375 C-359.30167969 -18.98882812 -358.69710937 -19.4503125 -358.07421875 -19.92578125 C-281.63267437 -78.18228455 -174.47447442 -91.8906174 0 0 Z " fill="#FEFEFE" transform="translate(470.90625,77.52734375)"/>
<path d="M0 0 C37.30890208 -0.04583768 74.61779989 -0.08104974 111.92672446 -0.10213066 C116.33738016 -0.10463189 120.7480358 -0.10722055 125.15869141 -0.10986328 C126.0367258 -0.1103879 126.91476019 -0.11091252 127.81940168 -0.11145304 C142.01232665 -0.12014144 156.20523531 -0.13590275 170.39815062 -0.15430559 C184.97538683 -0.17304828 199.55261454 -0.18412594 214.12986231 -0.18817699 C223.11542549 -0.19091301 232.10094259 -0.19953568 241.08649158 -0.21583293 C247.25902157 -0.22645381 253.43152793 -0.22958915 259.60406637 -0.22700275 C263.15839776 -0.22572936 266.71264896 -0.227598 270.26696587 -0.23841095 C306.25083404 -0.34190318 306.25083404 -0.34190318 318 5 C319.49466797 5.49113281 319.49466797 5.49113281 321.01953125 5.9921875 C331.3181754 9.47455996 340.59330883 15.19281202 349 22 C349.91523438 22.73863281 350.83046875 23.47726563 351.7734375 24.23828125 C368.19862592 38.29400972 377.65807089 57.09986665 382 78 C382.1757959 78.63075439 382.3515918 79.26150879 382.53271484 79.91137695 C385.08276217 91.30931574 383.54671711 105.69387372 381 117 C380.82855469 117.80566406 380.65710938 118.61132812 380.48046875 119.44140625 C377.26707746 132.02546118 370.1297847 144.0239474 362 154 C361.32453125 154.83917969 360.6490625 155.67835938 359.953125 156.54296875 C348.1129558 170.47893432 331.66730756 181.25047706 314 186 C312.90429688 186.29777344 311.80859375 186.59554687 310.6796875 186.90234375 C304.28942117 188.51103029 298.58299296 189.33472846 292 189 C296.08612126 193.74157416 300.26005042 198.39567409 304.5 203 C308.1033157 206.91324574 311.65175154 210.86434448 315.1328125 214.88671875 C317.03933441 217.04451865 318.98887378 219.15914729 320.94628906 221.27075195 C325.03082078 225.67844467 328.97916566 230.12791399 332.75 234.8125 C335.76487519 238.55695352 338.88087566 241.9992515 342.33203125 245.33984375 C344.70553856 247.70223393 346.8646571 250.23070352 349.05078125 252.765625 C351.33020694 255.37851376 353.66212353 257.93930021 356 260.5 C358.82577384 263.59731967 361.63218779 266.7040415 364.375 269.875 C368.01752388 274.06994456 371.80123313 278.13029345 375.57958984 282.20239258 C378.98840838 285.88316267 382.32396009 289.61599888 385.59765625 293.41796875 C386.81682461 294.79335367 388.12110681 296.09236048 389.4375 297.375 C391 299 391 299 391 301 C381.3160379 301.30279051 371.63373223 301.532968 361.94604969 301.67355824 C357.44612411 301.74107955 352.94946265 301.83244596 348.45141602 301.98071289 C344.10037035 302.12321716 339.7524376 302.1999396 335.39923668 302.23340416 C333.74878632 302.25720974 332.09848429 302.30370202 330.44938087 302.37449074 C323.25322428 302.67076748 316.9101921 302.9262779 311.11972046 298.15560913 C307.77777861 295.01165153 304.86105825 291.57846974 302 288 C300.85911643 286.7039593 299.71502787 285.41069682 298.5625 284.125 C298.04816406 283.51914062 297.53382813 282.91328125 297.00390625 282.2890625 C294.08216471 278.95155656 291.03579945 275.73362393 288 272.5 C280.64635506 264.66004568 280.64635506 264.66004568 277.5 261 C273.59991012 256.46959257 269.48694482 252.13818155 265.40112305 247.77612305 C260.78806246 242.85010539 256.21284541 237.89196486 251.66015625 232.91015625 C249.81714028 230.89393467 247.97138637 228.88060483 246.12109375 226.87109375 C238.19795867 218.26132272 238.19795867 218.26132272 234.5625 214.0625 C230.01434466 208.81963835 225.26285057 203.76224274 220.54638672 198.67138672 C214.0812425 191.68364164 207.6708818 184.64755401 201.3125 177.5625 C198.72384997 174.69399591 196.11414854 171.8452335 193.5 169 C189.41886592 164.55810269 185.36919425 160.08969811 181.34765625 155.59375 C179.57910115 153.6398056 177.79671595 151.70524922 175.99609375 149.78125 C175.23425781 148.96333984 175.23425781 148.96333984 174.45703125 148.12890625 C173.45984731 147.05994557 172.45866243 145.99470035 171.453125 144.93359375 C168 141.22321588 168 141.22321588 168 139 C168.63738696 138.99945523 169.27477392 138.99891047 169.93147564 138.99834919 C185.49166613 138.98333534 201.0515046 138.9407037 216.61152172 138.86790943 C224.13647339 138.83336092 231.66124381 138.8079173 239.1862793 138.80444336 C245.7505681 138.80138926 252.31453326 138.78070627 258.87869722 138.73947543 C262.34953697 138.71827355 265.81991812 138.70547781 269.29082298 138.71384621 C273.18011373 138.72289118 277.06859351 138.69254969 280.95776367 138.65942383 C282.08921814 138.66804947 283.22067261 138.67667511 284.38641357 138.68556213 C297.74666921 138.49610542 308.61830717 133.48629171 317.9296875 124.04296875 C325.91226684 114.80989951 328.88822717 103.58425586 328.4140625 91.54296875 C326.99354557 79.3881682 320.48306068 70.29156813 311.234375 62.56640625 C301.8602918 55.99471505 291.5466525 53.684169 280.31109619 53.76190186 C278.89246706 53.75956334 278.89246706 53.75956334 277.44517875 53.75717759 C274.29182673 53.75423385 271.13868339 53.76537476 267.98535156 53.77636719 C265.71795657 53.7768917 263.45056117 53.77645511 261.1831665 53.77513123 C256.30725456 53.77379933 251.43139306 53.77819828 246.55548859 53.78673553 C238.83918637 53.79913512 231.12297744 53.79215884 223.40667725 53.78131104 C220.76198203 53.77788251 218.11728675 53.77450693 215.4725914 53.77118301 C214.81175122 53.77035168 214.15091104 53.76952034 213.4700454 53.76866381 C205.95822221 53.75949155 198.44639831 53.75453233 190.93457031 53.75146484 C190.24841942 53.75117909 189.56226853 53.75089335 188.85532519 53.75059894 C177.74149316 53.74649638 166.62771485 53.75771744 155.51389483 53.77284035 C144.08230323 53.78783722 132.65092303 53.77940224 121.21934485 53.75222325 C114.80931324 53.73794731 108.3997059 53.73487171 101.98969269 53.75844574 C95.9582611 53.78062494 89.92748788 53.77500637 83.89608002 53.74846077 C81.68868275 53.74370335 79.48123535 53.74910735 77.27389526 53.76569176 C62.66074023 53.86820146 51.72118979 53.06869655 40.62646484 42.50952148 C40.08973145 41.97012939 39.55299805 41.4307373 39 40.875 C38.39752441 40.29242432 37.79504883 39.70984863 37.17431641 39.10961914 C35.09852525 37.09028909 33.04843232 35.04707094 31 33 C30.16178711 32.16871582 29.32357422 31.33743164 28.45996094 30.48095703 C22.61236666 24.68118931 16.79996979 18.84733354 11 13 C8.75052856 10.73799862 6.49954994 8.48004473 4.19921875 6.26953125 C2.76195416 4.88426073 1.37907116 3.443214 0 2 C0 1.34 0 0.68 0 0 Z " fill="#0A5EC6" transform="translate(69,132)"/>
<path d="M0 0 C7.25898852 -0.11648741 14.51777148 -0.20501241 21.77750969 -0.25906086 C25.14953797 -0.28501814 28.52092106 -0.32015506 31.89257812 -0.37719727 C35.78011759 -0.43820924 39.6667547 -0.4662944 43.5546875 -0.48828125 C44.74988007 -0.51408768 45.94507263 -0.5398941 47.17648315 -0.56648254 C56.72465328 -0.56964444 63.79175727 1.67029373 70.72265625 8.3828125 C71.85171399 9.61594677 72.96485263 10.86382525 74.0625 12.125 C74.65973877 12.78661133 75.25697754 13.44822266 75.87231445 14.12988281 C80.00770064 18.74846623 83.91897161 23.53357616 87.78515625 28.37890625 C91.10430544 32.30685882 94.7696977 35.84882858 98.4375 39.4453125 C101.19001931 42.18943999 103.74754443 45.03741565 106.2734375 47.98828125 C111.11692026 53.63170573 116.16556157 59.09981836 121.19897461 64.57373047 C128.6137218 72.63969583 128.6137218 72.63969583 132.1875 76.625 C132.73792969 77.23601562 133.28835938 77.84703125 133.85546875 78.4765625 C135 80 135 80 135 82 C133.53125 83.4453125 133.53125 83.4453125 131.5 85.125 C128.53322639 87.64257902 125.72425751 90.22168976 123 93 C120.54087905 95.49709965 118.04906214 97.86058142 115.375 100.125 C110.54681285 104.24827183 106.15974595 108.81837239 101.74755859 113.37744141 C101.16312988 113.97347168 100.57870117 114.56950195 99.9765625 115.18359375 C99.45143066 115.72556396 98.92629883 116.26753418 98.38525391 116.82592773 C97 118 97 118 95 118 C95 118.66 95 119.32 95 120 C93.671875 121.3046875 93.671875 121.3046875 91.75 122.875 C87.96968638 126.07888282 84.47332184 129.47314159 81 133 C77.79713554 136.24345717 74.60885783 139.42942063 71.125 142.375 C66.38705633 146.3902065 62.09140552 150.85986903 57.74658203 155.29052734 C57.16247559 155.8830127 56.57836914 156.47549805 55.9765625 157.0859375 C55.45143066 157.6226709 54.92629883 158.1594043 54.38525391 158.71240234 C51.36853665 161.51645007 48.70005128 161.12110276 44.71435547 161.11352539 C44.07032776 161.11367142 43.42630005 161.11381744 42.76275635 161.1139679 C40.63086598 161.1132704 38.49906263 161.10548566 36.3671875 161.09765625 C34.89031014 161.09579149 33.41343216 161.09436786 31.93655396 161.09336853 C28.04687801 161.08954792 24.15723933 161.07972152 20.26757812 161.06866455 C16.29948429 161.05844064 12.33138445 161.05386881 8.36328125 161.04882812 C0.57550384 161.03809885 -7.21224286 161.02102789 -15 161 C-14.06684879 159.90062509 -13.13212916 158.80258136 -12.19677734 157.70507812 C-11.67642914 157.09345825 -11.15608093 156.48183838 -10.6199646 155.85168457 C-8.07666535 152.94459143 -5.36513401 150.22027797 -2.625 147.5 C-2.0990625 146.97019531 -1.573125 146.44039062 -1.03125 145.89453125 C1.85969048 143.01057372 4.82045461 140.2596632 7.9140625 137.59375 C12.15107088 133.92634663 16.07778248 129.99882333 20 126 C24.51975312 121.39197045 29.10932227 116.98982203 34 112.77734375 C37.48971278 109.67613415 40.7321662 106.33165868 44 103 C48.57902244 98.33154353 53.22795891 93.85765054 58.18359375 89.58935547 C60.55834159 87.51145111 62.78661346 85.3104707 65 83.0625 C65.763125 82.29035156 66.52625 81.51820313 67.3125 80.72265625 C67.869375 80.15417969 68.42625 79.58570313 69 79 C65.19845408 73.52875548 60.97678516 68.85804557 56.21484375 64.20703125 C53.65282272 61.65404733 51.2996097 58.97349874 48.9453125 56.23046875 C46.51276385 53.44134169 44.00821386 50.72082451 41.5 48 C37.89962421 44.09041547 34.35581868 40.14132925 30.875 36.125 C28.45449925 33.38176582 25.97799358 30.69115432 23.5 28 C19.90790771 24.09891052 16.36676864 20.16344336 12.90234375 16.1484375 C11.33461355 14.37790032 9.74318598 12.64174421 8.12890625 10.9140625 C7.62359375 10.37136719 7.11828125 9.82867187 6.59765625 9.26953125 C5.58754824 8.18745625 4.57332191 7.10920859 3.5546875 6.03515625 C0 2.22158395 0 2.22158395 0 0 Z " fill="#0950AC" transform="translate(150,272)"/>
<path d="M0 0 C37.30890208 -0.04583768 74.61779989 -0.08104974 111.92672446 -0.10213066 C116.33738016 -0.10463189 120.7480358 -0.10722055 125.15869141 -0.10986328 C126.0367258 -0.1103879 126.91476019 -0.11091252 127.81940168 -0.11145304 C142.01232665 -0.12014144 156.20523531 -0.13590275 170.39815062 -0.15430559 C184.97538683 -0.17304828 199.55261454 -0.18412594 214.12986231 -0.18817699 C223.11542549 -0.19091301 232.10094259 -0.19953568 241.08649158 -0.21583293 C247.25902157 -0.22645381 253.43152793 -0.22958915 259.60406637 -0.22700275 C263.15839776 -0.22572936 266.71264896 -0.227598 270.26696587 -0.23841095 C306.25340005 -0.34191056 306.25340005 -0.34191056 318 5 C319.99263591 5.68836513 321.99041337 6.36281399 324 7 C319.88365073 8.54363098 316.22903156 7.73840234 312 7 C311.01 6.34 310.02 5.68 309 5 C306.62578592 4.57956506 306.62578592 4.57956506 304.0625 4.4375 C299.31398069 4.08655363 299.31398069 4.08655363 297.1583097 3.49230963 C294.70608601 2.93295833 292.50989479 2.87586226 289.99438858 2.87695217 C288.97972306 2.87496112 287.96505755 2.87297007 286.91964459 2.87091869 C285.25039556 2.87528795 285.25039556 2.87528795 283.54742432 2.87974548 C282.36385998 2.87889106 281.18029565 2.87803663 279.96086574 2.87715632 C276.67482613 2.87579265 273.38884591 2.87892306 270.10281348 2.88393438 C266.55956507 2.88824874 263.01631853 2.88679175 259.47306824 2.8860321 C253.33386042 2.8855075 247.19466322 2.88864772 241.05545807 2.89426994 C232.17917448 2.90239347 223.30289603 2.90500104 214.42660913 2.90625793 C200.02577687 2.90844711 185.62495028 2.91510356 171.22412109 2.92456055 C157.23421253 2.93373813 143.2443055 2.94081727 129.25439453 2.94506836 C128.3922037 2.94533108 127.53001288 2.94559381 126.64169505 2.94586449 C122.31638101 2.94716952 117.99106695 2.94843323 113.66575289 2.94967639 C77.77716459 2.96004482 41.88858274 2.9776595 6 3 C5.77390663 5.12364481 5.77390663 5.12364481 7.5 6.625 C7.995 7.07875 8.49 7.5325 9 8 C8.67 8.66 8.34 9.32 8 10 C6.66070495 8.71451591 5.32871357 7.42141845 4 6.125 C2.88625 5.04605469 2.88625 5.04605469 1.75 3.9453125 C0 2 0 2 0 0 Z " fill="#2395EA" transform="translate(69,132)"/>
<path d="M0 0 C7.25898852 -0.11648741 14.51777148 -0.20501241 21.77750969 -0.25906086 C25.14953797 -0.28501814 28.52092106 -0.32015506 31.89257812 -0.37719727 C35.78011759 -0.43820924 39.6667547 -0.4662944 43.5546875 -0.48828125 C44.74988007 -0.51408768 45.94507263 -0.5398941 47.17648315 -0.56648254 C56.80949598 -0.56967254 63.84847909 1.72059777 70.828125 8.48828125 C71.98380996 9.74938342 73.12460868 11.02429165 74.25 12.3125 C75.10851562 13.25125977 75.10851562 13.25125977 75.984375 14.20898438 C79.94517666 18.59737257 83.52650069 23.21960052 87 28 C84.0510636 26.5846017 81.97739128 25.22500776 79.6875 22.875 C79.08292969 22.25496094 78.47835937 21.63492187 77.85546875 20.99609375 C76.0165582 19.01781314 74.25405614 16.99112528 72.5 14.9375 C66.6185925 8.176507 61.66877552 3.54628446 52.4022522 2.78720093 C49.32076214 2.67367665 46.24356103 2.61893355 43.16015625 2.5859375 C42.03806259 2.56657135 40.91596893 2.5472052 39.75987244 2.5272522 C36.1941577 2.46771984 32.62841022 2.42117622 29.0625 2.375 C26.63735612 2.33679601 24.21222545 2.29774288 21.78710938 2.2578125 C15.8581907 2.16203999 9.92919168 2.07691603 4 2 C4 2.66 4 3.32 4 4 C4.99 4.33 5.98 4.66 7 5 C8.6484375 6.890625 8.6484375 6.890625 10.375 9.25 C13.03784009 12.79297881 15.81912241 15.90509208 19 19 C20.33333333 20.66666667 21.66666667 22.33333333 23 24 C23.804375 24.804375 24.60875 25.60875 25.4375 26.4375 C28 29 28 29 30.5 32.0625 C32.87644959 35.04578654 32.87644959 35.04578654 35.75 37.1875 C38 39 38 39 39 42 C39.99 42.66 40.98 43.32 42 44 C42 44.66 42 45.32 42 46 C42.66 46 43.32 46 44 46 C45.6875 48.375 45.6875 48.375 47 51 C46.505 51.99 46.505 51.99 46 53 C36.44210925 42.53824433 36.44210925 42.53824433 32.5625 38.0625 C29.13231424 34.11332633 25.58996482 30.26977695 22.04711914 26.42211914 C18.94199419 23.04406303 15.89960699 19.62203842 12.90234375 16.1484375 C11.33461355 14.37790032 9.74318598 12.64174421 8.12890625 10.9140625 C7.62359375 10.37136719 7.11828125 9.82867187 6.59765625 9.26953125 C5.58754824 8.18745625 4.57332191 7.10920859 3.5546875 6.03515625 C0 2.22158395 0 2.22158395 0 0 Z " fill="#1EA1F2" transform="translate(150,272)"/>
<path d="M0 0 C0.99 0.33 1.98 0.66 3 1 C-8.23046875 12.23046875 -8.23046875 12.23046875 -10.20458984 14.20263672 C-11.67889576 15.67854644 -13.14696647 17.16068206 -14.61328125 18.64453125 C-17.83583741 21.82489354 -21.18443628 24.85493338 -24.5390625 27.89453125 C-27.02277368 30.15534527 -29.412131 32.42618092 -31.75 34.84375 C-34 37 -34 37 -36 37 C-36.33 37.99 -36.66 38.98 -37 40 C-38.44647073 41.21635038 -39.89690864 42.42875864 -41.37890625 43.6015625 C-43.02340328 45.02018885 -44.32996611 46.49574044 -45.6875 48.1875 C-48 51 -48 51 -51 53 C-43.21156603 53.06943556 -35.42320423 53.12277821 -27.63453865 53.15543652 C-24.0181296 53.17110901 -20.40193192 53.19237553 -16.78564453 53.22631836 C-13.29730012 53.25885631 -9.80915932 53.27684108 -6.3206749 53.28463173 C-4.33856231 53.29289269 -2.35653191 53.31632087 -0.37454224 53.33988953 C0.82655182 53.34011612 2.02764587 53.34034271 3.26513672 53.34057617 C4.32658905 53.34723801 5.38804138 53.35389984 6.48165894 53.36076355 C7.31271149 53.24171158 8.14376404 53.12265961 9 53 C9.66 52.01 10.32 51.02 11 50 C11.66 50.33 12.32 50.66 13 51 C12 54 12 54 10 55 C7.90644981 55.09167789 5.80990823 55.11750933 3.71435547 55.11352539 C3.07032776 55.11367142 2.42630005 55.11381744 1.76275635 55.1139679 C-0.36913402 55.1132704 -2.50093737 55.10548566 -4.6328125 55.09765625 C-6.10968986 55.09579149 -7.58656784 55.09436786 -9.06344604 55.09336853 C-12.95312199 55.08954792 -16.84276067 55.07972152 -20.73242188 55.06866455 C-24.70051571 55.05844064 -28.66861555 55.05386881 -32.63671875 55.04882812 C-40.42449616 55.03809885 -48.21224286 55.02102789 -56 55 C-55.06684879 53.90062509 -54.13212916 52.80258136 -53.19677734 51.70507812 C-52.67642914 51.09345825 -52.15608093 50.48183838 -51.6199646 49.85168457 C-49.07666535 46.94459143 -46.36513401 44.22027797 -43.625 41.5 C-43.0990625 40.97019531 -42.573125 40.44039063 -42.03125 39.89453125 C-39.14030952 37.01057372 -36.17954539 34.2596632 -33.0859375 31.59375 C-28.84892912 27.92634663 -24.92221752 23.99882333 -21 20 C-16.40491438 15.31516662 -11.75103772 10.80321367 -6.76171875 6.53686523 C-4.38720764 4.46542019 -2.19292116 2.26144994 0 0 Z " fill="#1B397B" transform="translate(191,378)"/>
<path d="M0 0 C16.90756932 -0.0234041 33.81513355 -0.04101599 50.72271538 -0.05181217 C58.57393817 -0.0569592 66.42515087 -0.06397144 74.27636719 -0.07543945 C81.12284417 -0.08543508 87.96931385 -0.09186501 94.81579792 -0.09408849 C98.43788568 -0.09538734 102.05995252 -0.09842057 105.68203354 -0.10573006 C109.73448345 -0.11384102 113.78689746 -0.11398801 117.83935547 -0.11352539 C119.02834946 -0.11712067 120.21734344 -0.12071594 121.44236755 -0.12442017 C128.02480977 -0.11631206 134.46618487 0.18646938 141 1 C141 1.33 141 1.66 141 2 C96.12 2 51.24 2 5 2 C4.77390663 4.12364481 4.77390663 4.12364481 6.5 5.625 C6.995 6.07875 7.49 6.5325 8 7 C7.67 7.66 7.34 8.32 7 9 C5.82737096 7.88121617 4.66204862 6.75476949 3.5 5.625 C2.8503125 4.99851563 2.200625 4.37203125 1.53125 3.7265625 C0 2 0 2 0 0 Z " fill="#0B9FF2" transform="translate(70,133)"/>
<path d="M0 0 C9.92380865 7.8939387 18.0704638 17.72590629 25.98046875 27.57421875 C28.28318558 30.34015135 30.74876937 32.83934083 33.33203125 35.33984375 C35.70553856 37.70223393 37.8646571 40.23070352 40.05078125 42.765625 C42.33020694 45.37851376 44.66212353 47.93930021 47 50.5 C48.26457031 51.8921875 48.26457031 51.8921875 49.5546875 53.3125 C51.09531104 55.00570926 52.64143949 56.69394165 54.1953125 58.375 C54.83210938 59.07625 55.46890625 59.7775 56.125 60.5 C56.68445313 61.1084375 57.24390625 61.716875 57.8203125 62.34375 C59 64 59 64 59 67 C58.44570313 66.43410156 57.89140625 65.86820312 57.3203125 65.28515625 C56.59585938 64.55167969 55.87140625 63.81820312 55.125 63.0625 C54.40570313 62.33160156 53.68640625 61.60070312 52.9453125 60.84765625 C51.12972808 58.94332001 51.12972808 58.94332001 49 58 C48.67 57.01 48.34 56.02 48 55 C46.33729713 53.66172696 44.67083819 52.32810215 43 51 C43 50.34 43 49.68 43 49 C42.34 49 41.68 49 41 49 C40.7421875 48.401875 40.484375 47.80375 40.21875 47.1875 C38.89786676 44.81668393 37.62608463 43.6576253 35.5 42 C33.46348954 40.41221219 32.17802272 39.36325285 31.03515625 37.03125 C29.3869669 33.79706713 26.57799112 32.00961319 23.77734375 29.78125 C21.79364589 27.79319237 21.63444715 26.65008013 21 24 C20.01 23.67 19.02 23.34 18 23 C18 22.34 18 21.68 18 21 C17.01 20.67 16.02 20.34 15 20 C14.731875 19.4225 14.46375 18.845 14.1875 18.25 C13.02936765 15.70813779 13.02936765 15.70813779 10.0625 13.5625 C7.14685811 11.12288128 5.90080852 9.19681432 4 6 C2.68252676 5.30251417 1.35085807 4.63040043 0 4 C-0.33 3.01 -0.66 2.02 -1 1 C-0.67 0.67 -0.34 0.34 0 0 Z " fill="#193592" transform="translate(378,342)"/>
<path d="M0 0 C4.75210113 3.28470648 8.13111434 5.91424815 11 11 C14.52008638 14.36703914 17.06553512 16.56460604 22 17 C21.34 17.33 20.68 17.66 20 18 C20 18.99 20 19.98 20 21 C43.43 21 66.86 21 91 21 C91 20.34 91 19.68 91 19 C92.98 19.495 92.98 19.495 95 20 C95 20.66 95 21.32 95 22 C85.3160379 22.30279051 75.63373223 22.532968 65.94604969 22.67355824 C61.44612411 22.74107955 56.94946265 22.83244596 52.45141602 22.98071289 C48.10037035 23.12321716 43.7524376 23.1999396 39.39923668 23.23340416 C37.74878632 23.25720974 36.09848429 23.30370202 34.44938087 23.37449074 C27.26555834 23.67025967 20.91428706 23.92957058 15.13290405 19.16659546 C12.27177244 16.47409254 9.70084729 13.58976046 7.23647118 10.53285789 C5.63636247 8.54919721 3.90594307 6.69362857 2.1875 4.8125 C0 2 0 2 0 0 Z " fill="#00084B" transform="translate(365,411)"/>
<path d="M0 0 C-3.00090294 11.0033108 -17.07700417 18.36117653 -26.2109375 23.97265625 C-33.31353428 28 -33.31353428 28 -38 28 C-38 27.34 -38 26.68 -38 26 C-37.05125 25.71125 -36.1025 25.4225 -35.125 25.125 C-31.94788422 24.23174891 -31.94788422 24.23174891 -30 22 C-28.02000374 20.96165801 -26.00229664 20.03470518 -23.97265625 19.09765625 C-21.93234854 18.09678028 -21.93234854 18.09678028 -20.49609375 16.37109375 C-19 15 -19 15 -15 15 C-14.7834375 14.45859375 -14.566875 13.9171875 -14.34375 13.359375 C-12.53500003 10.18354656 -10.08276201 7.79271919 -7.5 5.25 C-7.00113281 4.74339844 -6.50226563 4.23679687 -5.98828125 3.71484375 C-2.25341139 0 -2.25341139 0 0 0 Z " fill="#0D3EAA" transform="translate(430,285)"/>
<path d="M0 0 C0.66 0 1.32 0 2 0 C1.67 0.99 1.34 1.98 1 3 C8.78843397 3.06943556 16.57679577 3.12277821 24.36546135 3.15543652 C27.9818704 3.17110901 31.59806808 3.19237553 35.21435547 3.22631836 C38.70269988 3.25885631 42.19084068 3.27684108 45.6793251 3.28463173 C47.66143769 3.29289269 49.64346809 3.31632087 51.62545776 3.33988953 C52.82655182 3.34011612 54.02764587 3.34034271 55.26513672 3.34057617 C56.32658905 3.34723801 57.38804138 3.35389984 58.48165894 3.36076355 C59.31271149 3.24171158 60.14376404 3.12265961 61 3 C61.66 2.01 62.32 1.02 63 0 C63.99 0.495 63.99 0.495 65 1 C64 4 64 4 62 5 C59.90644981 5.09167789 57.80990823 5.11750933 55.71435547 5.11352539 C55.07032776 5.11367142 54.42630005 5.11381744 53.76275635 5.1139679 C51.63086598 5.1132704 49.49906263 5.10548566 47.3671875 5.09765625 C45.89031014 5.09579149 44.41343216 5.09436786 42.93655396 5.09336853 C39.04687801 5.08954792 35.15723933 5.07972152 31.26757812 5.06866455 C27.29948429 5.05844064 23.33138445 5.05386881 19.36328125 5.04882812 C11.57550384 5.03809885 3.78775714 5.02102789 -4 5 C-2.71937515 3.2925002 -1.38232443 1.62626404 0 0 Z " fill="#050C36" transform="translate(139,428)"/>
<path d="M0 0 C0.66 0 1.32 0 2 0 C3.55078125 1.79296875 3.55078125 1.79296875 5.3125 4.1875 C8.00026744 7.74893098 10.79935308 10.88358063 14 14 C14.825 15.010625 15.65 16.02125 16.5 17.0625 C18.87644959 20.04578654 18.87644959 20.04578654 21.75 22.1875 C24 24 24 24 25 27 C25.99 27.66 26.98 28.32 28 29 C28 29.66 28 30.32 28 31 C28.66 31 29.32 31 30 31 C31.6875 33.375 31.6875 33.375 33 36 C32.505 36.99 32.505 36.99 32 38 C22.44210925 27.53824433 22.44210925 27.53824433 18.5625 23.0625 C15.09336213 19.0647316 11.50884016 15.17664528 7.90649414 11.29907227 C0 2.74331442 0 2.74331442 0 0 Z " fill="#1C8BEF" transform="translate(164,287)"/>
<path d="M0 0 C0.66 0 1.32 0 2 0 C0.60249952 3.15835107 -1.05198234 5.32272825 -3.5 7.75 C-4.41265625 8.67039062 -4.41265625 8.67039062 -5.34375 9.609375 C-7 11 -7 11 -9 11 C-9.33 11.99 -9.66 12.98 -10 14 C-11.44289566 15.21334408 -12.88950276 16.42302392 -14.3671875 17.59375 C-16.92861874 19.79976734 -18.90647092 22.35230146 -21 25 C-21.99 24.67 -22.98 24.34 -24 24 C-17.76936097 16.52323316 -11.05618703 9.777212 -3.6640625 3.4453125 C-2.39833536 2.34597202 -1.1854566 1.1854566 0 0 Z " fill="#152555" transform="translate(164,404)"/>
<path d="M0 0 C3.64181523 0.57332346 5.28427305 1.93129028 7.8125 4.5625 C8.51117188 5.28824219 9.20984375 6.01398438 9.9296875 6.76171875 C12.37992093 9.4107447 14.77134722 12.1009058 17.125 14.8359375 C20.68666966 18.9466979 24.35334186 22.96469576 28 27 C27.67 27.66 27.34 28.32 27 29 C26.44570313 28.43410156 25.89140625 27.86820312 25.3203125 27.28515625 C24.59585937 26.55167969 23.87140625 25.81820313 23.125 25.0625 C22.40570313 24.33160156 21.68640625 23.60070312 20.9453125 22.84765625 C19.12972808 20.94332001 19.12972808 20.94332001 17 20 C16.67 19.01 16.34 18.02 16 17 C14.33729713 15.66172696 12.67083819 14.32810215 11 13 C11 12.34 11 11.68 11 11 C10.34 11 9.68 11 9 11 C8.74476563 10.40574219 8.48953125 9.81148438 8.2265625 9.19921875 C6.88103839 6.78670259 5.52025784 5.52958909 3.375 3.8125 C2.23489161 2.89343303 1.10537887 1.96055651 0 1 C0 0.67 0 0.34 0 0 Z " fill="#152576" transform="translate(410,380)"/>
<path d="M0 0 C1.14926266 0.95421808 2.29430541 1.91352045 3.4375 2.875 C4.07558594 3.40867187 4.71367187 3.94234375 5.37109375 4.4921875 C7 6 7 6 8 8 C8.99 8 9.98 8 11 8 C11.20496094 8.68707031 11.40992188 9.37414062 11.62109375 10.08203125 C13.45934456 13.97204075 16.09107586 16.61876607 19.0625 19.6875 C24.89601096 25.79202192 24.89601096 25.79202192 26 28 C18.83206092 24.85309991 13.74451044 17.8556389 8.7421875 12.0234375 C7.514262 10.59728187 6.26758665 9.18716479 5.0078125 7.7890625 C4.36585938 7.07492187 3.72390625 6.36078125 3.0625 5.625 C2.18271484 4.65433594 2.18271484 4.65433594 1.28515625 3.6640625 C0 2 0 2 0 0 Z " fill="#16348F" transform="translate(336,379)"/>
<path d="M0 0 C9.24 0 18.48 0 28 0 C28 0.66 28 1.32 28 2 C20.41 2 12.82 2 5 2 C4.77390663 4.12364481 4.77390663 4.12364481 6.5 5.625 C6.995 6.07875 7.49 6.5325 8 7 C7.67 7.66 7.34 8.32 7 9 C5.82737096 7.88121617 4.66204862 6.75476949 3.5 5.625 C2.8503125 4.99851563 2.200625 4.37203125 1.53125 3.7265625 C0 2 0 2 0 0 Z " fill="#19AFF7" transform="translate(70,133)"/>
<path d="M0 0 C0.33 0.66 0.66 1.32 1 2 C1.91652344 2.45826172 1.91652344 2.45826172 2.8515625 2.92578125 C6.5979775 4.79898875 9.16290144 7.97416741 12 11 C12.60070312 11.63035156 13.20140625 12.26070313 13.8203125 12.91015625 C14.37460937 13.51730469 14.92890625 14.12445313 15.5 14.75 C16.0053125 15.30171875 16.510625 15.8534375 17.03125 16.421875 C17.3509375 16.94265625 17.670625 17.4634375 18 18 C17.67 18.99 17.34 19.98 17 21 C17 20.34 17 19.68 17 19 C16.01 18.67 15.02 18.34 14 18 C14 17.34 14 16.68 14 16 C13.38125 15.7525 12.7625 15.505 12.125 15.25 C9.64931313 13.79371361 9.04874998 12.62187494 8 10 C7.34 10 6.68 10 6 10 C4.4921875 8.57421875 4.4921875 8.57421875 2.875 6.6875 C2.33617187 6.07261719 1.79734375 5.45773437 1.2421875 4.82421875 C0 3 0 3 0 0 Z " fill="#1947B2" transform="translate(359,321)"/>
<path d="M0 0 C-2.02576268 7.42779648 -8.70846865 12.16370039 -15 16 C-14.42235562 12.86915901 -13.59969956 11.22256994 -11.34765625 8.984375 C-10.81849609 8.45585937 -10.28933594 7.92734375 -9.74414062 7.3828125 C-9.18919922 6.84398437 -8.63425781 6.30515625 -8.0625 5.75 C-7.51142578 5.19570313 -6.96035156 4.64140625 -6.39257812 4.0703125 C-2.26712592 0 -2.26712592 0 0 0 Z " fill="#1749B1" transform="translate(430,285)"/>
<path d="M0 0 C6.35801086 0.37099057 11.26182752 1.24126323 17 4 C18.99263591 4.68836513 20.99041337 5.36281399 23 6 C18.88365073 7.54363098 15.22903156 6.73840234 11 6 C10.01 5.34 9.02 4.68 8 4 C6.34450469 3.61500109 4.6777567 3.27206865 3 3 C3 2.34 3 1.68 3 1 C2.01 0.67 1.02 0.34 0 0 Z " fill="#2A88E5" transform="translate(370,133)"/>
<path d="M0 0 C6.3343346 5.09500827 11.62789574 10.92530665 17 17 C16.34 17.66 15.68 18.32 15 19 C14.40251953 18.29423828 14.40251953 18.29423828 13.79296875 17.57421875 C12.99826172 16.64029297 12.99826172 16.64029297 12.1875 15.6875 C11.66542969 15.07261719 11.14335937 14.45773437 10.60546875 13.82421875 C9.04652811 12.00771542 9.04652811 12.00771542 7.42578125 10.45703125 C6 9 6 9 4 6 C3.319375 5.67 2.63875 5.34 1.9375 5 C0 4 0 4 -1 1 C-0.67 0.67 -0.34 0.34 0 0 Z " fill="#173BA4" transform="translate(378,342)"/>
<path d="M0 0 C1.32 0.33 2.64 0.66 4 1 C4 1.66 4 2.32 4 3 C-8.21 3 -20.42 3 -33 3 C-33 2.67 -33 2.34 -33 2 C-22.11 2 -11.22 2 0 2 C0 1.34 0 0.68 0 0 Z " fill="#00063C" transform="translate(456,430)"/>
<path d="M0 0 C0.99 0.33 1.98 0.66 3 1 C-1.95 5.95 -6.9 10.9 -12 16 C-12 12.32180832 -11.23156682 11.77617345 -8.8125 9.125 C-8.17828125 8.42632812 -7.5440625 7.72765625 -6.890625 7.0078125 C-4.64038137 4.61809096 -2.35642724 2.28502036 0 0 Z " fill="#0C3586" transform="translate(191,378)"/>
<path d="M0 0 C3.50886032 1.40354413 4.4267148 2.64365823 6 6 C6.99 6.66 7.98 7.32 9 8 C9 8.66 9 9.32 9 10 C9.66 10 10.32 10 11 10 C12.6875 12.375 12.6875 12.375 14 15 C13.67 15.66 13.34 16.32 13 17 C11.3936298 15.2519799 9.78986703 13.50168356 8.1875 11.75 C7.73568359 11.25886719 7.28386719 10.76773437 6.81835938 10.26171875 C0 2.79636177 0 2.79636177 0 0 Z " fill="#1C7AEB" transform="translate(183,308)"/>
<path d="M0 0 C7.84015288 3.44966727 13.20179277 11.1661897 18 18 C10.59942771 14.67861026 4.99246445 7.22161224 0 1 C0 0.67 0 0.34 0 0 Z " fill="#1E8DEE" transform="translate(219,282)"/>
<path d="M0 0 C1.98 0 3.96 0 6 0 C5.01 0.33 4.02 0.66 3 1 C3 1.66 3 2.32 3 3 C3.99 3.33 4.98 3.66 6 4 C7.82421875 6.06640625 7.82421875 6.06640625 9.6875 8.5625 C10.31011719 9.38878906 10.93273437 10.21507812 11.57421875 11.06640625 C12.04472656 11.70449219 12.51523438 12.34257812 13 13 C12.67 13.66 12.34 14.32 12 15 C9.99390948 12.88046983 7.99506397 10.75486559 6 8.625 C5.42765625 8.02171875 4.8553125 7.4184375 4.265625 6.796875 C3.72421875 6.21679688 3.1828125 5.63671875 2.625 5.0390625 C1.87089844 4.23782959 1.87089844 4.23782959 1.1015625 3.42041016 C0 2 0 2 0 0 Z " fill="#229CF0" transform="translate(151,273)"/>
<path d="M0 0 C0.99 0.33 1.98 0.66 3 1 C3 1.66 3 2.32 3 3 C3.66 3 4.32 3 5 3 C6.3671875 4.609375 6.3671875 4.609375 7.875 6.75 C10.05731197 9.76672537 12.25356742 12.46483146 15 15 C14.67 15.66 14.34 16.32 14 17 C3.11010421 6.35885818 3.11010421 6.35885818 0 2 C0 1.34 0 0.68 0 0 Z " fill="#164AB3" transform="translate(301,341)"/>
<path d="M0 0 C0.66 0.33 1.32 0.66 2 1 C2 1.66 2 2.32 2 3 C2.66 3 3.32 3 4 3 C5.7265625 4.64453125 5.7265625 4.64453125 7.625 6.8125 C8.25664062 7.52019531 8.88828125 8.22789062 9.5390625 8.95703125 C11 11 11 11 11 14 C6.07091854 10.12207712 2.4576289 6.23883167 -1 1 C-0.67 0.67 -0.34 0.34 0 0 Z " fill="#196CD6" transform="translate(252,286)"/>
<path d="M0 0 C5.95313434 0.29765672 9.70222089 3.13302453 14 7 C14.33 7.66 14.66 8.32 15 9 C12.1653959 8.58005865 10.92610765 7.9380902 8.6875 6.0625 C5.43552551 3.56679864 2.95694833 2.93104667 -1 2 C-0.67 1.34 -0.34 0.68 0 0 Z " fill="#299DF0" transform="translate(206,273)"/>
<path d="M0 0 C3.24271506 0.5590888 4.93057424 1.4132178 7 4 C7 4.66 7 5.32 7 6 C7.5775 6.268125 8.155 6.53625 8.75 6.8125 C11.05550043 8.02929189 13.02056192 9.30333879 15 11 C15 11.66 15 12.32 15 13 C11.12207603 11.38419835 8.28921212 8.75734641 5.25 5.9375 C4.74339844 5.47794922 4.23679687 5.01839844 3.71484375 4.54492188 C2.45382769 3.38757425 1.22393107 2.19649813 0 1 C0 0.67 0 0.34 0 0 Z " fill="#31A9F1" transform="translate(103,167)"/>
<path d="M0 0 C4.67371093 3.23052228 8.35250568 5.84435317 11 11 C12.58245275 12.75149165 12.58245275 12.75149165 14 14 C13.67 14.66 13.34 15.32 13 16 C3.24448217 6.50424448 3.24448217 6.50424448 0 2 C0 1.34 0 0.68 0 0 Z " fill="#1C2D79" transform="translate(365,411)"/>
<path d="M0 0 C0.66 0 1.32 0 2 0 C0.59155282 3.21524305 -1.10344786 5.32183868 -3.625 7.75 C-4.57246094 8.67039062 -4.57246094 8.67039062 -5.5390625 9.609375 C-6.02117187 10.06828125 -6.50328125 10.5271875 -7 11 C-7.99 10.34 -8.98 9.68 -10 9 C-9.44570312 8.51789063 -8.89140625 8.03578125 -8.3203125 7.5390625 C-7.59585938 6.90742188 -6.87140625 6.27578125 -6.125 5.625 C-5.40570313 4.99851562 -4.68640625 4.37203125 -3.9453125 3.7265625 C-2.5923402 2.52573166 -1.2791655 1.2791655 0 0 Z " fill="#0D2562" transform="translate(164,404)"/>
<path d="M0 0 C3.3 0 6.6 0 10 0 C9.67 0.66 9.34 1.32 9 2 C5.07226248 3.14170067 1.25421021 3.10357788 -2.8125 3.0625 C-3.97394531 3.05347656 -5.13539063 3.04445313 -6.33203125 3.03515625 C-7.21246094 3.02355469 -8.09289062 3.01195312 -9 3 C-9 2.67 -9 2.34 -9 2 C-6.03 2 -3.06 2 0 2 C0 1.34 0 0.68 0 0 Z " fill="#0937A6" transform="translate(369,317)"/>
<path d="M0 0 C5.45479185 0.56820748 9.91059256 1.94637945 15 4 C15 4.33 15 4.66 15 5 C9.33557626 4.63495936 4.99296295 3.9445679 0 1 C0 0.67 0 0.34 0 0 Z " fill="#219BEE" transform="translate(118,180)"/>
<path d="M0 0 C7.48291572 6.15034169 7.48291572 6.15034169 10 10 C7 10 7 10 5.17578125 8.57421875 C4.56089844 7.95160156 3.94601562 7.32898438 3.3125 6.6875 C2.37857422 5.76517578 2.37857422 5.76517578 1.42578125 4.82421875 C0 3 0 3 0 0 Z " fill="#1C63D2" transform="translate(269,336)"/>
<path d="M0 0 C3.91939465 3.80411834 7.49102731 7.81576108 11 12 C7.22552753 10.26534882 4.86564001 8.01646317 2 5 C1.34 4.34 0.68 3.68 0 3 C0 2.01 0 1.02 0 0 Z " fill="#277FEB" transform="translate(248,312)"/>
<path d="M0 0 C4.24822374 0.47202486 6.19989709 2.96655518 9 6 C8.67 6.99 8.34 7.98 8 9 C6.66368764 7.6905332 5.33102075 6.37734515 4 5.0625 C3.2575 4.33160156 2.515 3.60070312 1.75 2.84765625 C0 1 0 1 0 0 Z " fill="#31B0F2" transform="translate(94,158)"/>
<path d="M0 0 C9.59453303 4.03872437 9.59453303 4.03872437 13 7 C11.35 7 9.7 7 8 7 C7.67 6.01 7.34 5.02 7 4 C6.236875 3.87625 5.47375 3.7525 4.6875 3.625 C2 3 2 3 -1 1 C-0.67 0.67 -0.34 0.34 0 0 Z " fill="#1275E1" transform="translate(394,140)"/>
<path d="M0 0 C1.32 0.33 2.64 0.66 4 1 C4 1.66 4 2.32 4 3 C-0.62 3 -5.24 3 -10 3 C-10 2.67 -10 2.34 -10 2 C-6.7 2 -3.4 2 0 2 C0 1.34 0 0.68 0 0 Z " fill="#0F1442" transform="translate(456,430)"/>
<path d="M0 0 C0.763125 0.309375 1.52625 0.61875 2.3125 0.9375 C4.18789677 1.67893593 6.08684652 2.36228217 8 3 C7.34 3 6.68 3 6 3 C5.67 4.32 5.34 5.64 5 7 C3.29115995 5.37660195 1.62553283 3.70680947 0 2 C0 1.34 0 0.68 0 0 Z " fill="#061A65" transform="translate(379,426)"/>
<path d="M0 0 C0.66 0.33 1.32 0.66 2 1 C0.90716423 2.03295436 -0.19970579 3.05107835 -1.3125 4.0625 C-1.92738281 4.63097656 -2.54226562 5.19945312 -3.17578125 5.78515625 C-3.77777344 6.18605469 -4.37976563 6.58695312 -5 7 C-5.99 6.67 -6.98 6.34 -8 6 C-5.63404067 3.38499232 -3.13950774 1.61000397 0 0 Z " fill="#11439E" transform="translate(200,371)"/>
<path d="M0 0 C2.93200474 2.85276137 5.64315404 5.65079784 8 9 C7.01 9.33 6.02 9.66 5 10 C4.731875 9.030625 4.46375 8.06125 4.1875 7.0625 C3.795625 6.051875 3.40375 5.04125 3 4 C2.01 3.67 1.02 3.34 0 3 C0 2.01 0 1.02 0 0 Z " fill="#2476E0" transform="translate(425,161)"/>
<path d="M0 0 C1.15518918 0.90484792 2.29885406 1.8244206 3.4375 2.75 C4.07558594 3.26046875 4.71367187 3.7709375 5.37109375 4.296875 C7.18810554 6.19667629 7.60423197 7.43586908 8 10 C4.82537057 7.59757773 2.14248259 5.38286724 0 2 C0 1.34 0 0.68 0 0 Z " fill="#1C409F" transform="translate(336,379)"/>
<path d="M0 0 C1.32 0 2.64 0 4 0 C5.25664978 2.90600261 6 4.79604584 6 8 C4.99403703 7.0479279 3.99538437 6.08812654 3 5.125 C2.443125 4.59132813 1.88625 4.05765625 1.3125 3.5078125 C0 2 0 2 0 0 Z " fill="#0F3CA3" transform="translate(321,363)"/>
<path d="M0 0 C1.32 0 2.64 0 4 0 C3.67 1.32 3.34 2.64 3 4 C1.35 4 -0.3 4 -2 4 C-1.34 2.68 -0.68 1.36 0 0 Z " fill="#05133B" transform="translate(128,548)"/>
<path d="M0 0 C1.98 1.65 3.96 3.3 6 5 C5.67 5.99 5.34 6.98 5 8 C2.5 5.6875 2.5 5.6875 0 3 C0 2.01 0 1.02 0 0 Z " fill="#145ECB" transform="translate(210,337)"/>
<path d="M0 0 C4.59037956 1.14759489 5.33669182 2.29039218 8 6 C7.01 6.33 6.02 6.66 5 7 C3.35 4.69 1.7 2.38 0 0 Z " fill="#176BDD" transform="translate(199,327)"/>
<path d="M0 0 C3.625 0.375 3.625 0.375 7 1 C4.42786866 2.61949011 3.32330841 3.04408751 0.25 2.625 C-0.4925 2.41875 -1.235 2.2125 -2 2 C-1.34 1.34 -0.68 0.68 0 0 Z " fill="#2354B7" transform="translate(380,315)"/>
<path d="M0 0 C0.99 0 1.98 0 3 0 C6 3.33333333 6 3.33333333 6 6 C3.37812506 4.95125002 2.20628639 4.35068687 0.75 1.875 C0.5025 1.25625 0.255 0.6375 0 0 Z " fill="#126BD9" transform="translate(238,272)"/>
<path d="M0 0 C0.33 0.66 0.66 1.32 1 2 C1.66 2.33 2.32 2.66 3 3 C2.01 3 1.02 3 0 3 C0 2.01 0 1.02 0 0 Z " fill="#5C607B" transform="translate(92,568)"/>
<path d="" fill="#EDEFF3" transform="translate(0,0)"/>
</svg>
